Coordinates
version=1
nRows=22
nColumns=24
inDegrees=yes

Units are S.I. units (second, meters, Newtons, ...)
Angles are in degrees.

endheader
time	pelvis_tilt	pelvis_list	pelvis_rotation	pelvis_tx	pelvis_ty	pelvis_tz	hip_flexion_r	hip_adduction_r	hip_rotation_r	knee_angle_r	ankle_angle_r	subtalar_angle_r	mtp_angle_r	hip_flexion_l	hip_adduction_l	hip_rotation_l	knee_angle_l	ankle_angle_l	subtalar_angle_l	mtp_angle_l	lumbar_extension	lumbar_bending	lumbar_rotation
      3.53500000	     -8.67810092	      3.19237231	    -12.30375745	     -2.37886562	     -0.02312749	      0.45174362	     -4.57898894	     -2.60172665	     10.22663905	    -16.01847809	      2.02156515	     -0.98261099	      5.72326075	     27.57850660	     -2.63834654	     -0.59111238	     -5.07606706	     -7.17793646	      0.48641682	     13.23819874	      6.96279925	     -1.44204985	      9.78498432
      3.54000000	     -8.72417789	      3.28378571	    -12.33837775	     -2.37167003	     -0.02351157	      0.45089628	     -4.62349675	     -2.83180080	     10.20720208	    -16.62925346	      1.50351607	     -0.80408531	      6.05089203	     27.62017845	     -2.42478180	     -0.67078535	     -5.71897788	     -7.35301803	      0.54675042	     13.22404746	      7.18220975	     -1.48546945	      9.85870616
      3.54500000	     -8.78272138	      3.39008794	    -12.39085703	     -2.36447703	     -0.02394060	      0.45003184	     -4.59521753	     -3.07369235	     10.19487013	    -17.32984256	      0.98539705	     -0.61141617	      6.52148341	     27.67014310	     -2.20401018	     -0.76574349	     -6.38530002	     -7.59625504	      0.57909585	     13.24852870	      7.41261692	     -1.54270857	      9.93583213
      3.55000000	     -8.77230522	      3.45649170	    -12.39771701	     -2.35726211	     -0.02425254	      0.44911511	     -4.63605224	     -3.27461894	     10.13260581	    -18.07344874	      0.36477758	     -0.46143198	      6.65318297	     27.63206169	     -1.98416723	     -0.85327243	     -7.04581624	     -7.94290940	      0.64355302	     13.27229031	      7.55524180	     -1.58614274	      9.97713930
      3.55500000	     -8.87550750	      3.65887580	    -12.38845738	     -2.34990052	     -0.02466592	      0.44815179	     -4.50018882	     -3.60949207	     10.03789421	    -18.84579460	     -0.24673806	     -0.22621562	      7.23914714	     27.71040384	     -1.65135459	     -1.04349669	     -7.65889288	     -8.50214113	      0.73708085	     13.36227421	      7.87040904	     -1.74787413	     10.09083378
      3.56000000	     -8.95536794	      3.77109230	    -12.39307659	     -2.34274907	     -0.02502024	      0.44708655	     -4.32202481	     -3.85401580	      9.89666799	    -19.70622165	     -1.01034959	     -0.05075297	      8.07729216	     27.76242071	     -1.40738387	     -1.17574983	     -8.27057153	     -9.15693658	      0.75761120	     13.55575529	      8.10041629	     -1.80981224	     10.16402640
      3.56500000	     -8.97269161	      3.97125146	    -12.32418868	     -2.33542524	     -0.02524091	      0.44607438	     -4.20719613	     -4.17894158	      9.72944848	    -20.60114731	     -1.83783334	      0.04575599	      8.39189457	     27.73259960	     -1.04389899	     -1.34375449	     -8.83284687	     -9.83588433	      0.93559922	     13.59301159	      8.30563592	     -2.00927656	     10.20447210
      3.57000000	     -9.04727266	      4.15137492	    -12.30042337	     -2.32824606	     -0.02545462	      0.44496637	     -3.93394034	     -4.49526473	      9.48687228	    -21.56829968	     -2.80404749	      0.21264920	      9.36432428	     27.76404022	     -0.72944371	     -1.50061386	     -9.37676739	    -10.61753554	      0.94117865	     13.70017633	      8.54282860	     -2.15382275	     10.29394898
      3.57500000	     -9.03972328	      4.39887843	    -12.19358564	     -2.32099835	     -0.02552852	      0.44389538	     -3.73413909	     -4.86406150	      9.24552435	    -22.60214678	     -3.81471247	      0.26771768	      9.67789991	     27.73244724	     -0.30859863	     -1.68462620	     -9.94614014	    -11.29109035	      1.11072080	     13.63166143	      8.71435063	     -2.42345055	     10.31866394
      3.58000000	     -9.11129894	      4.62685430	    -12.13893905	     -2.31390447	     -0.02561940	      0.44272245	     -3.34626009	     -5.22537969	      8.94880831	    -23.69200724	     -5.01124354	      0.34708179	     10.85267926	     27.79039615	      0.06714187	     -1.77023609	    -10.53858905	    -11.95135870	      1.00008651	     13.34232524	      8.93937082	     -2.62815373	     10.40530724
      3.58500000	     -9.11708922	      4.87398002	    -12.03505642	     -2.30676555	     -0.02557800	      0.44158159	     -3.00882208	     -5.59206235	      8.65919423	    -24.81914089	     -6.39658034	      0.20346482	     11.73975255	     27.78287679	      0.49304453	     -1.81458849	    -11.15396660	    -12.42624179	      0.92762210	     12.86801563	      9.09981919	     -2.88359480	     10.43485724
      3.59000000	     -9.12159613	      5.10924394	    -11.92872019	     -2.29964417	     -0.02546111	      0.44046796	     -2.62590738	     -5.94229526	      8.35057305	    -25.98621869	     -7.92994925	      0.04843000	     12.68067818	     27.77730120	      0.91029475	     -1.82969506	    -11.80779377	    -12.72113548	      0.80000525	     12.15417352	      9.25566631	     -3.14128448	     10.48714819
      3.59500000	     -9.10991947	      5.34099980	    -11.82133235	     -2.29254960	     -0.02530396	      0.43938977	     -2.20604029	     -6.27698426	      8.05076008	    -27.21620859	     -9.60526140	     -0.22579172	     13.57769597	     27.75608058	      1.33050106	     -1.81618941	    -12.49460369	    -12.80612088	      0.61142161	     11.28858182	      9.38461321	     -3.40019133	     10.52880553
      3.60000000	     -9.08028522	      5.55512282	    -11.68613778	     -2.28546602	     -0.02508228	      0.43828783	     -1.77143505	     -6.58938941	      7.73351625	    -28.46638332	    -11.46052196	     -0.58858459	     14.59114497	     27.71675366	      1.75150833	     -1.80876379	    -13.21572678	    -12.65722357	      0.49097250	     10.27975694	      9.48315187	     -3.65006115	     10.54732655
      3.60500000	     -9.05008342	      5.75755577	    -11.60054206	     -2.27852222	     -0.02488717	      0.43729439	     -1.24721957	     -6.85625300	      7.50947351	    -29.84482668	    -13.37988148	     -1.09884709	     15.32526951	     27.65964738	      2.14425093	     -1.72899493	    -13.92455389	    -12.41644067	      0.18508466	      9.35351009	      9.55800417	     -3.88686132	     10.61433992
      3.61000000	     -9.01962126	      5.94728641	    -11.47293798	     -2.27156892	     -0.02466761	      0.43627383	     -0.69754147	     -7.10012867	      7.25316077	    -31.23148780	    -15.46925549	     -1.72921604	     16.19993491	     27.58812835	      2.54457970	     -1.65081243	    -14.63616208	    -11.97084141	      0.01447928	      8.40080799	      9.62574493	     -4.11888342	     10.62936928
      3.61500000	     -8.97600701	      6.15059020	    -11.31936260	     -2.26462523	     -0.02444420	      0.43525039	     -0.12205839	     -7.35489274	      6.97703310	    -32.64557742	    -17.63578334	     -2.41408496	     17.21716629	     27.49205462	      2.96662368	     -1.63201916	    -15.34302287	    -11.31136720	      0.06794165	      7.50948395	      9.67628918	     -4.37328631	     10.61276060
      3.62000000	     -8.91746242	      6.32948467	    -11.23683940	     -2.25789635	     -0.02422968	      0.43435930	      0.54017747	     -7.53874846	      6.82196916	    -34.23046711	    -19.76626250	     -3.21552711	     17.52457444	     27.32876655	      3.34527336	     -1.51904649	    -15.93839541	    -10.80322683	     -0.16454375	      7.01457449	      9.67772298	     -4.59998578	     10.65894027
      3.62500000	     -8.89408569	      6.53131527	    -11.10439125	     -2.25118333	     -0.02406881	      0.43344005	      1.27706925	     -7.73345220	      6.60881114	    -35.83979094	    -21.97496969	     -4.17144351	     17.96701191	     27.18563800	      3.75524679	     -1.43365396	    -16.50446274	    -10.15961844	     -0.19180877	      6.57644019	      9.71525238	     -4.85099752	     10.63987160
      3.63000000	     -8.85978354	      6.76520302	    -10.97408923	     -2.24455471	     -0.02393766	      0.43255114	      2.06830270	     -7.95340246	      6.39132784	    -37.53040151	    -24.11570646	     -5.19703423	     18.22715632	     27.00116054	      4.19579782	     -1.36903271	    -16.99824434	     -9.49791039	     -0.16567138	      6.29344226	      9.73485105	     -5.13736300	     10.61778515
      3.63500000	     -8.83484973	      7.02582929	    -10.83698320	     -2.23801420	     -0.02385506	      0.43167851	      2.92953597	     -8.18948510	      6.15985712	    -39.29461027	    -26.18407239	     -6.35725316	     18.27155140	     26.79221367	      4.66256755	     -1.29414612	    -17.41229727	     -8.83059773	     -0.10223633	      6.12822123	      9.75719360	     -5.45248685	     10.58449078
      3.64000000	     -8.81879417	      7.32080106	    -10.69231189	     -2.23156757	     -0.02381929	      0.43081833	      3.85820869	     -8.45116194	      5.92062752	    -41.12788606	    -28.14569894	     -7.67525427	     18.05391763	     26.56140712	      5.16336018	     -1.21955227	    -17.74466007	     -8.18873253	     -0.01781605	      6.05103729	      9.78216165	     -5.80121550	     10.52808641
